<group>
ampeg_attack=0.100000
ampeg_release=0.500000

<region>
sample=Harmonica-Hohner-Special20-F/Sustains/Vib/Hohner-Special20-F_Vib_F3.wav
pitch_keycenter=53
lokey=53.0
hikey=55.0
volume=-0.719245

<region>
sample=Harmonica-Hohner-Special20-F/Sustains/Vib/Hohner-Special20-F_Vib_A3.wav
pitch_keycenter=57
lokey=56.0
hikey=58.0
volume=1.180978

<region>
sample=Harmonica-Hohner-Special20-F/Sustains/Vib/Hohner-Special20-F_Vib_C4.wav
pitch_keycenter=60
lokey=59.0
hikey=62.0
volume=0.792669

<region>
sample=Harmonica-Hohner-Special20-F/Sustains/Vib/Hohner-Special20-F_Vib_F4.wav
pitch_keycenter=65
lokey=63.0
hikey=67.0
tune=-1
volume=-0.979064

<region>
sample=Harmonica-Hohner-Special20-F/Sustains/Vib/Hohner-Special20-F_Vib_A4.wav
pitch_keycenter=69
lokey=68.0
hikey=70.0
volume=-0.823894

<region>
sample=Harmonica-Hohner-Special20-F/Sustains/Vib/Hohner-Special20-F_Vib_C5.wav
pitch_keycenter=72
lokey=71.0
hikey=74.0
volume=5.141761

<region>
sample=Harmonica-Hohner-Special20-F/Sustains/Vib/Hohner-Special20-F_Vib_F5.wav
pitch_keycenter=77
lokey=75.0
hikey=79.0
volume=-2.970039

<region>
sample=Harmonica-Hohner-Special20-F/Sustains/Vib/Hohner-Special20-F_Vib_A5.wav
pitch_keycenter=81
lokey=80.0
hikey=85.0
tune=-1
volume=-0.060392

<region>
sample=Harmonica-Hohner-Special20-F/Sustains/Vib/Hohner-Special20-F_Vib_F6.wav
pitch_keycenter=89
lokey=86.0
hikey=90.0
volume=0.738648

